<svg width="58" height="58" viewBox="0 0 58 58" fill="none" xmlns="http://www.w3.org/2000/svg">
<path d="M17.4444 14.5556V3M40.5556 14.5556V3M14.5556 26.1111H43.4444M8.77778 55H49.2222C50.7546 55 52.2242 54.3913 53.3077 53.3077C54.3913 52.2242 55 50.7546 55 49.2222V14.5556C55 13.0232 54.3913 11.5536 53.3077 10.47C52.2242 9.38651 50.7546 8.77778 49.2222 8.77778H8.77778C7.24542 8.77778 5.77582 9.38651 4.69227 10.47C3.60873 11.5536 3 13.0232 3 14.5556V49.2222C3 50.7546 3.60873 52.2242 4.69227 53.3077C5.77582 54.3913 7.24542 55 8.77778 55Z" stroke="#1F64FF" stroke-width="5" stroke-linecap="round" stroke-linejoin="round"/>
</svg>
