<svg width="59" height="58" viewBox="0 0 59 58" fill="none" xmlns="http://www.w3.org/2000/svg">
<path d="M3 49.0897V22.7C2.99985 21.7272 3.23983 20.7694 3.69863 19.9116C4.15743 19.0538 4.82088 18.3225 5.6301 17.7826L26.3163 3.99382C27.2875 3.34582 28.4289 3 29.5965 3C30.7641 3 31.9055 3.34582 32.8767 3.99382L53.5629 17.7826C54.3721 18.3225 55.0356 19.0538 55.4944 19.9116C55.9532 20.7694 56.1931 21.7272 56.193 22.7V49.0897M3 49.0897C3 50.6572 3.62269 52.1605 4.7311 53.2689C5.8395 54.3773 7.34282 55 8.91033 55H50.2827C51.8502 55 53.3535 54.3773 54.4619 53.2689C55.5703 52.1605 56.193 50.6572 56.193 49.0897M3 49.0897L22.9474 35.7914M56.193 49.0897L36.2456 35.7914M22.9474 35.7914L3 22.4932M22.9474 35.7914L26.3163 38.0373C27.2875 38.6853 28.4289 39.0312 29.5965 39.0312C30.7641 39.0312 31.9055 38.6853 32.8767 38.0373L36.2456 35.7914M36.2456 35.7914L56.193 22.4932" stroke="#1F64FF" stroke-width="5" stroke-linecap="round" stroke-linejoin="round"/>
</svg>
