<svg width="10" height="10" viewBox="0 0 10 10" fill="none" xmlns="http://www.w3.org/2000/svg">
<path d="M7.61845 5.81752L9.67597 4.13452C9.73743 4.08179 9.78187 4.01202 9.80367 3.93404C9.82547 3.85606 9.82366 3.77337 9.79847 3.69642C9.77327 3.61946 9.72582 3.55171 9.66211 3.50171C9.5984 3.45172 9.5213 3.42173 9.44055 3.41554L6.79608 3.24466C6.71765 3.24004 6.64219 3.21297 6.57872 3.16666C6.51525 3.12036 6.46644 3.05678 6.43811 2.9835L5.47063 0.497689C5.44071 0.419765 5.38786 0.352742 5.31906 0.305465C5.25026 0.258188 5.16873 0.23288 5.08525 0.23288C5.00176 0.23288 4.92023 0.258188 4.85143 0.305465C4.78263 0.352742 4.72978 0.419765 4.69986 0.497689L3.73238 2.96738C3.70235 3.03986 3.65258 3.10246 3.58872 3.14806C3.52487 3.19366 3.4495 3.22042 3.37118 3.22531L0.70737 3.36073C0.624407 3.36473 0.544581 3.39365 0.478324 3.44373C0.412066 3.4938 0.362458 3.56269 0.335984 3.6414C0.30951 3.7201 0.3074 3.80496 0.329931 3.88489C0.352462 3.96481 0.398585 4.03608 0.462273 4.08938L2.51012 5.77883C2.56849 5.83056 2.61165 5.89722 2.63494 5.97164C2.65824 6.04607 2.6608 6.12543 2.64234 6.2012L1.96188 8.78051C1.94314 8.86087 1.94893 8.94501 1.97849 9.02205C2.00806 9.09909 2.06005 9.1655 2.12775 9.2127C2.19545 9.25991 2.27575 9.28574 2.35828 9.28686C2.44081 9.28798 2.52179 9.26434 2.59074 9.21899L4.82886 7.79715C4.89355 7.75321 4.96995 7.72971 5.04816 7.72971C5.12636 7.72971 5.20277 7.75321 5.26746 7.79715L7.50557 9.23834C7.57496 9.28127 7.65551 9.30268 7.73706 9.29987C7.81861 9.29706 7.89749 9.27015 7.96375 9.22254C8.03001 9.17493 8.08066 9.10875 8.10932 9.03237C8.13798 8.95599 8.14335 8.87284 8.12477 8.79341L7.47977 6.21409C7.4656 6.14164 7.47098 6.06671 7.49535 5.99702C7.51972 5.92732 7.56221 5.86537 7.61845 5.81752V5.81752Z" fill="white"/>
</svg>
