<svg width="26" height="24" viewBox="0 0 26 24" fill="none" xmlns="http://www.w3.org/2000/svg">
<path d="M23.7642 0.0806036L1.73454 0C1.29654 0.000828078 0.876521 0.174266 0.565601 0.482694C0.254681 0.791121 0.0779292 1.20966 0.0736857 1.64754L-0.000488248 22.0983C-0.00533121 22.3257 0.0619757 22.5488 0.191782 22.7356C0.321588 22.9224 0.507227 23.0633 0.722081 23.1381C0.936936 23.2129 1.16997 23.2178 1.38777 23.1521C1.60558 23.0863 1.79696 22.9533 1.93448 22.7721L6.33977 17.2137L23.6997 17.2782C24.1377 17.2773 24.5577 17.1039 24.8686 16.7955C25.1796 16.4871 25.3563 16.0685 25.3606 15.6306L25.4089 1.73781C25.4089 1.30052 25.2361 0.880944 24.928 0.570525C24.6199 0.260106 24.2016 0.0840066 23.7642 0.0806036V0.0806036Z" fill="#1F64FF"/>
</svg>
