<svg width="21" height="19" viewBox="0 0 21 19" fill="none" xmlns="http://www.w3.org/2000/svg">
<path d="M19.1178 0.712646H15.5704L15.5414 10.2916C15.5388 10.8996 15.2954 11.4818 14.8645 11.9108C14.4335 12.3399 13.8501 12.5807 13.242 12.5807V12.5807L0.751709 12.5356V12.6774C0.751682 13.0167 0.885376 13.3423 1.12382 13.5837C1.36226 13.8251 1.68624 13.9629 2.02557 13.9671L15.4446 14.009L18.8469 18.3358C18.9535 18.4717 19.0998 18.571 19.2655 18.6201C19.4311 18.6691 19.6079 18.6653 19.7714 18.6093C19.9348 18.5533 20.0767 18.4479 20.1775 18.3076C20.2782 18.1673 20.3328 17.9991 20.3336 17.8264L20.3917 1.99908C20.3909 1.66037 20.2568 1.33559 20.0184 1.09488C19.7801 0.854178 19.4566 0.716879 19.1178 0.712646Z" fill="#1F64FF"/>
</svg>
